<svg width="302.4" height="302.4" xmlns="http://www.w3.org/2000/svg">

 <g>
  <title>background</title>
  <rect fill="none" id="canvas_background" height="602" width="802" y="-1" x="-1"/>
 </g>
 <g>
  <title>Layer 1</title>
  <g id="svg_1">
   <g id="svg_2">
    <path fill="#ffffff" id="svg_3" d="m204.8,97.6c-13.6,-13.6 -32.8,-22.4 -53.6,-22.4s-40,8.4 -53.6,22.4c-13.6,13.6 -22.4,32.8 -22.4,53.6s8.8,40 22.4,53.6c13.6,13.6 32.8,22.4 53.6,22.4s40,-8.4 53.6,-22.4c13.6,-13.6 22.4,-32.8 22.4,-53.6s-8.4,-40 -22.4,-53.6zm-14.4,92.8c-10,10 -24,16 -39.2,16s-29.2,-6 -39.2,-16s-16,-24 -16,-39.2s6,-29.2 16,-39.2s24,-16 39.2,-16s29.2,6 39.2,16s16,24 16,39.2s-6,29.2 -16,39.2z"/>
   </g>
  </g>
  <g id="svg_4">
   <g id="svg_5">
    <path fill="#ffffff" id="svg_6" d="m292,140.8l-30.8,0c-5.6,0 -10.4,4.8 -10.4,10.4c0,5.6 4.8,10.4 10.4,10.4l30.8,0c5.6,0 10.4,-4.8 10.4,-10.4c0,-5.6 -4.8,-10.4 -10.4,-10.4z"/>
   </g>
  </g>
  <g id="svg_7">
   <g id="svg_8">
    <path fill="#ffffff" id="svg_9" d="m151.2,250.8c-5.6,0 -10.4,4.8 -10.4,10.4l0,30.8c0,5.6 4.8,10.4 10.4,10.4c5.6,0 10.4,-4.8 10.4,-10.4l0,-30.8c0,-5.6 -4.8,-10.4 -10.4,-10.4z"/>
   </g>
  </g>
  <g id="svg_10">
   <g id="svg_11">
    <path fill="#ffffff" id="svg_12" d="m258,243.6l-22,-22c-3.6,-4 -10.4,-4 -14.4,0s-4,10.4 0,14.4l22,22c4,4 10.4,4 14.4,0s4,-10.4 0,-14.4z"/>
   </g>
  </g>
  <g id="svg_13">
   <g id="svg_14">
    <path fill="#ffffff" id="svg_15" d="m151.2,0c-5.6,0 -10.4,4.8 -10.4,10.4l0,30.8c0,5.6 4.8,10.4 10.4,10.4c5.6,0 10.4,-4.8 10.4,-10.4l0,-30.8c0,-5.6 -4.8,-10.4 -10.4,-10.4z"/>
   </g>
  </g>
  <g id="svg_16">
   <g id="svg_17">
    <path fill="#ffffff" id="svg_18" d="m258.4,44.4c-4,-4 -10.4,-4 -14.4,0l-22,22c-4,4 -4,10.4 0,14.4c3.6,4 10.4,4 14.4,0l22,-22c4,-4 4,-10.4 0,-14.4z"/>
   </g>
  </g>
  <g id="svg_19">
   <g id="svg_20">
    <path fill="#ffffff" id="svg_21" d="m41.2,140.8l-30.8,0c-5.6,0 -10.4,4.8 -10.4,10.4s4.4,10.4 10.4,10.4l30.8,0c5.6,0 10.4,-4.8 10.4,-10.4c0,-5.6 -4.8,-10.4 -10.4,-10.4z"/>
   </g>
  </g>
  <g id="svg_22">
   <g id="svg_23">
    <path fill="#ffffff" id="svg_24" d="m80.4,221.6c-3.6,-4 -10.4,-4 -14.4,0l-22,22c-4,4 -4,10.4 0,14.4s10.4,4 14.4,0l22,-22c4,-4 4,-10.4 0,-14.4z"/>
   </g>
  </g>
  <g id="svg_25">
   <g id="svg_26">
    <path fill="#ffffff" id="svg_27" d="m80.4,66.4l-22,-22c-4,-4 -10.4,-4 -14.4,0s-4,10.4 0,14.4l22,22c4,4 10.4,4 14.4,0s4,-10.4 0,-14.4z"/>
   </g>
  </g>
  <g id="svg_28"/>
  <g id="svg_29"/>
  <g id="svg_30"/>
  <g id="svg_31"/>
  <g id="svg_32"/>
  <g id="svg_33"/>
  <g id="svg_34"/>
  <g id="svg_35"/>
  <g id="svg_36"/>
  <g id="svg_37"/>
  <g id="svg_38"/>
  <g id="svg_39"/>
  <g id="svg_40"/>
  <g id="svg_41"/>
  <g id="svg_42"/>
 </g>
</svg>